<svg width="54" height="54" viewBox="0 0 54 54" fill="none" xmlns="http://www.w3.org/2000/svg">
<path d="M27 16.9889C25 12.4925 16 12.7407 16 19.9925C16 26.3378 22.5 30 27 32C31.5 30 38 26.3379 38 19.9925C38 12.7407 29 12.4925 27 16.9889Z" stroke="#F04716"/>
<path d="M38 17.5C38 16.6716 37.3284 16 36.5 16C35.6716 16 35 16.6716 35 17.5V19H33.5C32.6716 19 32 19.6716 32 20.5C32 21.3284 32.6716 22 33.5 22H35V23.5C35 24.3284 35.6716 25 36.5 25C37.3284 25 38 24.3284 38 23.5V22H39.5C40.3284 22 41 21.3284 41 20.5C41 19.6716 40.3284 19 39.5 19H38V17.5Z" fill="#F04716" stroke="white" stroke-width="2"/>
</svg>
