<svg width="16" height="16" viewBox="0 0 16 16" fill="none" xmlns="http://www.w3.org/2000/svg">
<path d="M4.5 4.50003C4.77614 4.22389 5.22386 4.22389 5.5 4.50003L11.5 10.5C11.7762 10.7762 11.7762 11.2239 11.5 11.5C11.2239 11.7762 10.7762 11.7762 10.5 11.5L4.5 5.50003C4.22386 5.22389 4.22386 4.77617 4.5 4.50003Z" fill="white"/>
<path d="M11.5 4.50003C11.2239 4.22389 10.7761 4.22389 10.5 4.50003L4.49997 10.5C4.22383 10.7762 4.22383 11.2239 4.49997 11.5C4.77611 11.7762 5.22383 11.7762 5.49997 11.5L11.5 5.50003C11.7761 5.22389 11.7761 4.77617 11.5 4.50003Z" fill="white"/>
</svg>
