<svg width="40" height="43" viewBox="0 0 40 43" fill="none" xmlns="http://www.w3.org/2000/svg">
<path fill-rule="evenodd" clip-rule="evenodd" d="M0 14.2789V28.6441C0 31.2113 1.36762 33.5823 3.58522 34.8597L15.9331 41.9728C18.125 43.2355 20.8184 43.2401 23.0146 41.985L35.4895 34.8555C37.719 33.5813 39.0959 31.2036 39.0959 28.6278V14.2953C39.0959 11.7194 37.719 9.34174 35.4895 8.06756L23.0146 0.938094C20.8184 -0.317026 18.125 -0.312396 15.9331 0.950254L3.58521 8.06334C1.36762 9.34081 0 11.7118 0 14.2789ZM3.10285 28.6441V14.2789C3.10285 12.8279 3.87585 11.4878 5.12928 10.7658L7.91227 9.1626V33.7605L5.12928 32.1573C3.87586 31.4353 3.10285 30.0951 3.10285 28.6441ZM14.118 37.3353L17.4772 39.2704C18.7161 39.9841 20.2384 39.9867 21.4797 39.2773L32.6869 32.8723H13.9628C13.106 32.8723 12.4114 32.1749 12.4114 31.3145C12.4114 30.4542 13.106 29.7567 13.9628 29.7567H35.8333C35.938 29.3948 35.9931 29.0152 35.9931 28.6278V16.9829H13.9628C13.106 16.9829 12.4114 16.2854 12.4114 15.4251C12.4114 14.5648 13.106 13.8673 13.9628 13.8673H35.9706C35.8345 12.5798 35.0903 11.4243 33.9547 10.7753L21.4797 3.6458C20.2384 2.93639 18.7161 2.939 17.4772 3.65267L14.118 5.58775V12.6211C12.5757 12.6211 11.3254 13.8765 11.3254 15.4251C11.3254 16.9737 12.5757 18.2291 14.118 18.2291V28.5105C12.5757 28.5105 11.3254 29.7659 11.3254 31.3145C11.3254 32.8631 12.5757 34.1185 14.118 34.1185V37.3353Z" fill="white"/>
</svg>
